Coordinates
version=1
nRows=10
nColumns=33
inDegrees=yes

Units are S.I. units (second, meters, Newtons, ...)
Angles are in degrees.

endheader
time	ground_thorax_rot_x	ground_thorax_rot_y	ground_thorax_rot_z	ground_thorax_tx	ground_thorax_ty	ground_thorax_tz	clav_prot_r	clav_elev_r	scapula_abduction_r	scapula_elevation_r	scapula_upward_rot_r	scapula_winging_r	shoulder_elv_r	plane_of_elev_r	axial_rot_r	elbow_flexion_r	pro_sup_r	wrist_flex_r	wrist_dev_r	clav_prot_l	clav_elev_l	scapula_abduction_l	scapula_elevation_l	scapula_upward_rot_l	scapula_winging_l	shoulder_elv_l	plane_of_elev_l	axial_rot_l	elbow_flexion_l	pro_sup_l	wrist_flex_l	wrist_dev_l
     10.69000000	    -19.25817433	    -34.11543348	     57.69535234	      4.58928535	    785.84020830	    -40.48706323	     29.18155709	    -45.00000000	     39.65654761	    -45.00000000	    -45.00000000	  -2623.41389706	  -3886.12781445	     19.87443262	   -143.17931664	   1800.46891243	   -189.60033217	     11.04872089	     13.09928151	     -0.98880674	     31.04678076	    -27.86359864	    -45.00000000	    -45.00000000	  -2075.71299179	  -2443.82114807	     26.59743502	     49.65477918	   1429.35170467	     41.77648839	     12.06503555	    -14.78234596
     10.70000000	    -19.48235154	    -34.03548051	     57.38342868	      2.92882743	    786.78128508	    -40.51120374	     29.18922286	    -45.00000000	     39.68641876	    -45.00000000	    -45.00000000	  -2623.45902891	  -3886.00973638	     19.94400148	   -143.57480085	   1800.43385925	   -189.92450386	     11.14156607	     13.16095779	     -0.95681738	     31.10476046	    -28.02154595	    -45.00000000	    -45.00000000	  -2075.57696058	  -2443.73838954	     26.64986265	     49.70515090	   1429.31695101	     41.49875085	     12.12130973	    -14.85406457
     10.71000000	    -19.68574604	    -34.00275465	     57.10417154	      1.20034705	    787.79955141	    -40.52790962	     29.14454438	    -45.00000000	     39.73041104	    -45.00000000	    -45.00000000	  -2623.48635792	  -3885.92334141	     20.02246825	   -143.94045802	   1800.43685647	   -190.23545435	     11.20724306	     13.22922270	     -0.91337009	     31.16686925	    -28.16389560	    -45.00000000	    -45.00000000	  -2075.41714109	  -2443.60767086	     26.64954785	     49.76926958	   1429.32533270	     41.31321654	     12.17070786	    -14.95145853
     10.72000000	    -19.98478926	    -33.91961185	     56.67933942	     -0.61186989	    788.88915073	    -40.51284590	     29.04968883	    -45.00000000	     39.76130823	    -45.00000000	    -45.00000000	  -2623.48018031	  -3885.84508098	     20.08339509	   -144.31844729	   1800.40031616	   -190.51753424	     11.30591844	     13.31121700	     -0.83074053	     31.23223993	    -28.36013517	    -45.00000000	    -45.00000000	  -2075.24893453	  -2443.51820411	     26.68921105	     49.84797739	   1429.36404271	     41.21030048	     12.20397754	    -15.04887456
     10.73000000	    -20.26333342	    -33.82317747	     56.28538677	     -2.48941320	    790.04050254	    -40.50616147	     28.98852558	    -45.00000000	     39.80958790	    -45.00000000	    -45.00000000	  -2623.51745732	  -3885.75274209	     20.15409137	   -144.69472400	   1800.35668618	   -190.77371706	     11.40720765	     13.39860069	     -0.78679754	     31.28850846	    -28.53286597	    -45.00000000	    -45.00000000	  -2075.09734948	  -2443.42442072	     26.73472971	     49.93628574	   1429.37909122	     41.14903034	     12.25183815	    -15.14603049
     10.74000000	    -20.53634297	    -33.78038581	     55.89238974	     -4.44111207	    791.25930698	    -40.49820335	     28.95108338	    -45.00000000	     39.85967382	    -45.00000000	    -45.00000000	  -2623.53180754	  -3885.68343409	     20.24896194	   -145.04661662	   1800.34311965	   -191.00229802	     11.48984903	     13.49556440	     -0.75613717	     31.35864926	    -28.69858560	    -45.00000000	    -45.00000000	  -2074.91276372	  -2443.30570960	     26.75199035	     50.01604189	   1429.41980145	     41.11111133	     12.30255671	    -15.24012525
     10.75000000	    -20.83211764	    -33.68290640	     55.45281618	     -6.45547874	    792.53918800	    -40.49444510	     28.88001282	    -45.00000000	     39.89876712	    -45.00000000	    -45.00000000	  -2623.56924920	  -3885.59052235	     20.31165861	   -145.39985199	   1800.25705311	   -191.21517042	     11.61282408	     13.57179504	     -0.70234851	     31.42260912	    -28.86751473	    -45.00000000	    -45.00000000	  -2074.76146817	  -2443.22103724	     26.79138780	     50.09233954	   1429.43625100	     41.08563447	     12.34897040	    -15.30781903
     10.76000000	    -20.97060725	    -33.63927687	     55.23892726	     -8.52819749	    793.87788806	    -40.49530942	     28.90130192	    -45.00000000	     39.96631876	    -45.00000000	    -45.00000000	  -2623.66607526	  -3885.46574887	     20.42296806	   -145.72889860	   1800.32112425	   -191.42056791	     11.64374057	     13.65156207	     -0.73987947	     31.49016213	    -28.97562800	    -45.00000000	    -45.00000000	  -2074.62521264	  -2443.06667466	     26.77163784	     50.15104805	   1429.37987724	     41.05763792	     12.45175308	    -15.37327083
     10.77000000	    -21.26214227	    -33.54691247	     54.80489376	    -10.65238795	    795.27133940	    -40.50228556	     28.81067162	    -45.00000000	     40.01167169	    -45.00000000	    -45.00000000	  -2623.71105188	  -3885.34816404	     20.50449409	   -146.03977090	   1800.24242468	   -191.61305206	     11.74908399	     13.72732867	     -0.67986036	     31.56585340	    -29.15218587	    -45.00000000	    -45.00000000	  -2074.46216322	  -2442.97379277	     26.79977711	     50.20774027	   1429.37598672	     41.00227448	     12.52065654	    -15.42306705
     10.78000000	    -21.60401625	    -33.43386189	     54.35596208	    -12.82298258	    796.71650838	    -40.51540648	     28.73597666	    -45.00000000	     40.04725218	    -45.00000000	    -45.00000000	  -2623.74287689	  -3885.25061312	     20.53928519	   -146.38148993	   1800.16715798	   -191.78860621	     11.87273685	     13.77975816	     -0.62270723	     31.64038622	    -29.33933850	    -45.00000000	    -45.00000000	  -2074.29500126	  -2442.86450454	     26.85128719	     50.29642927	   1429.41389522	     40.90743482	     12.57177691	    -15.46239839
